<?xml version="1.0" encoding="UTF-8" standalone="no"?><!DOCTYPE svg PUBLIC "-//W3C//DTD SVG 1.1//EN" "http://www.w3.org/Graphics/SVG/1.1/DTD/svg11.dtd"><svg width="100%" height="100%" viewBox="0 0 1024 1024" version="1.1" xmlns="http://www.w3.org/2000/svg" xmlns:xlink="http://www.w3.org/1999/xlink" xml:space="preserve" xmlns:serif="http://www.serif.com/" style="fill-rule:evenodd;clip-rule:evenodd;stroke-linejoin:round;stroke-miterlimit:2;"><g id="Background"><path d="M247.385,668.609c-3.967,-3.48 -7.055,-4.903 -7.449,-10.12c-0.459,-6.083 -0.214,-129.016 -0.192,-140.234c0.023,-11.619 0.229,-114.698 0.535,-145.239c0.098,-9.815 3.037,-8.995 12.436,-11.714c68.196,-19.728 127.621,14.657 149.282,72.075c9.894,26.228 7.217,29.233 7.713,165.015c0.123,33.598 -0.532,34.945 3.307,36.505c1.108,0.45 59.82,0.034 69.863,0.114c9.931,0.079 8.618,4.028 24.616,26.261c12.349,17.162 33.328,48.028 34.926,50.188c12.511,16.909 113.58,160.173 119.006,166.875c2.2,2.717 3.651,2.636 2.258,5.854c-0.771,1.781 -1.155,1.493 -3.086,1.451c-17.172,-0.373 -17.12,-0.178 -122.647,0.114c-13.755,0.038 -13.46,-1.959 -24.405,-10.276c-6.027,-4.58 -61.189,-46.496 -75.156,-57.497c-60.516,-47.665 -60.787,-47.242 -66,-51.441c-36.486,-29.383 -63.917,-47.6 -125.007,-97.931Z" style="fill:#162c57;"/><path d="M633.063,540.791c0.013,-5.136 -0.155,-10.423 0.831,-12.059c2.241,-3.718 3.581,-1.887 69.354,-2.079c5.761,-0.017 7.727,-1.484 8.864,4.195c0.004,0.022 0.242,23.988 0.201,39.981c-0.082,31.455 0.163,33.674 -1.476,35.17c-1.34,1.222 -1.787,1.63 -22.633,1.262c-50.765,-0.894 -53.893,2.318 -55.056,-3.872c-0.319,-1.697 -0.234,-53.615 -0.084,-62.598Z" style="fill:#71d89d;"/><path d="M633.092,430.609c0.872,-4.096 0.743,-4.118 0.941,-4.421c1.398,-2.14 2.008,-2.161 41.644,-2.09c32.143,0.058 35.043,-1.167 36.357,4.141c0.028,0.114 0.016,0.117 -0.054,44.955c-0.043,27.434 1.321,29.802 -3.571,30.792c-1.636,0.331 -68.062,0.205 -70.353,0.066c-6.805,-0.413 -5.095,-8.058 -5.07,-10.839c0.093,-10.321 0.104,-57.595 0.106,-62.603Z" style="fill:#42cdc2;"/><path d="M540.494,607.303c-4.055,-1.062 -5.33,0.011 -6.412,-4.069c-0.172,-0.648 0.178,-55.151 0.208,-59.947c0.06,-9.427 -0.892,-14.961 3.839,-16.38c1.165,-0.349 45.914,-0.216 49.906,-0.204c19.877,0.059 23.707,-0.908 24.363,4.163c0.092,0.711 0.58,33.147 0.394,54.999c-0.143,16.887 0.935,20.357 -4.8,21.436c-2.949,0.555 -62.1,0.049 -67.499,0.002Z" style="fill:#148cbd;"/><path d="M540.459,504.117c-3.978,-0.804 -5.159,0.334 -6.386,-3.578c-0.083,-0.263 -0.046,-6.744 -0.061,-12.346c-0.012,-4.408 -0.126,-48.32 0.054,-55.095c0.2,-7.547 1.494,-8.486 8.89,-8.544c3.207,-0.025 38.367,-0.298 40.087,-0.267c26.809,0.487 28.776,-0.634 29.657,3.902c0.319,1.641 0.531,32.416 0.506,39.982c-0.111,33.294 0.182,34.27 -2.487,35.339c-0.551,0.221 -0.491,0.916 -70.259,0.605Z" style="fill:#1388b7;"/><path d="M645.64,402.032c-8.477,-0.259 -12.165,1.954 -12.267,-6.484c-0.11,-9.201 0.214,-67.355 0.234,-67.564c0.528,-5.555 3.831,-4.686 24.548,-4.653c50.858,0.081 50.951,0.047 51.976,0.613c2.184,1.204 2.184,1.851 2.286,34.041c0.126,39.864 1.067,40.504 -1.431,42.854c-1.323,1.245 -1.549,1.485 -65.346,1.193Z" style="fill:#2dc5ce;"/><path d="M452.821,607.334c-1.717,-0.006 -13.695,0.324 -15.257,-1.151c-1.452,-1.37 -1.715,-1.652 -1.582,-32.826c0.183,-42.825 -0.29,-43.373 1.847,-45.037c0.7,-0.545 0.739,-0.971 42.539,-1.02c29.413,-0.034 31.588,-0.68 32.603,3.461c0.907,3.698 0.463,3.755 0.434,47.59c-0.017,25.229 0.532,27.317 -3.278,28.822c-1.278,0.505 -52.722,0.188 -57.306,0.16Z" style="fill:#15254e;"/><path d="M436.204,478.177c-0.057,-46.478 -0.65,-46.569 0.49,-50.439c1.42,-4.819 8.666,-3.226 41.172,-3.294c32.656,-0.068 34.339,-0.608 35.326,3.597c0.345,1.472 0.36,48.433 0.362,52.645c0.006,19.957 1.39,23.114 -5.607,23.46c-0.843,0.042 -64.803,0.106 -65.143,0.105c-7.876,-0.034 -6.574,-3.16 -6.56,-11.042c0.002,-1.327 -0.035,-13.829 -0.039,-15.031Z" style="fill:#142952;"/><path d="M800.9,424.503c3.149,0.125 8.292,-1.671 8.613,6.028c0.556,13.352 -0.025,43.222 -0.119,65.17c-0.021,4.822 0.346,8.072 -5.94,8.326c-5.686,0.23 -48.903,-0.033 -62.68,-0.142c-6.096,-0.048 -8.1,0.494 -8.345,-5.609c-0.23,-5.738 -0.123,-58.309 -0.429,-65.154c-0.454,-10.181 3.582,-8.934 13.793,-8.855c27.603,0.215 27.557,-0.653 55.107,0.237Z" style="fill:#8fdf6d;"/><path d="M743.298,401.491c-0.777,-0.017 -9.662,1.185 -10.867,-3.163c-0.407,-1.468 -0.758,-39.196 -0.337,-50.373c0.736,-19.542 -2.382,-22.046 3.861,-24.15c0.48,-0.162 6.75,-0.175 7.337,-0.177c61.301,-0.132 61.326,-0.283 62.362,0.036c2.867,0.882 3.133,2.365 3.036,29.323c-0.134,37.359 0.682,44.315 -1.344,46.681c-1.703,1.988 -2.234,1.966 -64.048,1.822Z" style="fill:#82da83;"/><path d="M600.552,337.94c2.893,-1.922 2.786,-1.945 5.647,-4.033c3.362,-2.454 5.9,-1.096 6.031,1.681c0.785,16.658 0.338,55.154 0.282,59.95c-0.054,4.613 0.062,5.709 -4.533,6.348c-1.024,0.143 -69.018,0.57 -69.881,0.297c-2.725,-0.862 -4.018,-1.246 -3.645,-16.691c0.154,-6.372 3.291,-6.823 13.958,-14.329c14.062,-9.896 49.827,-31.703 52.142,-33.223Z" style="fill:#16b1d0;"/><path d="M207.827,444.797c-16.488,-8.429 -16.65,-7.985 -33.166,-16.311c-23.386,-11.789 -23.828,-11.641 -24.158,-13.111c-0.521,-2.32 -0.033,-3.156 24.934,-16.183c12.799,-6.678 12.795,-6.628 13.902,-7.216c26.343,-13.991 26.014,-14.588 28.447,-15.479c2.58,-0.944 3.837,1.442 4,1.751c0.327,0.62 0.216,55.377 0.816,67.389c0.023,0.461 0.253,5.073 -2.664,5.124c-0.349,0.006 -0.301,-0.043 -12.111,-5.964Z" style="fill:#193c66;"/><path d="M838.442,369.363c-3.036,-0.409 -7.383,1.382 -7.579,-6.363c-0.085,-3.365 -0.049,-34.474 0.09,-35.058c0.962,-4.045 2.636,-3.409 35.042,-3.423c5.898,-0.003 7.548,0.025 7.571,5.924c0.011,2.803 0.132,33.638 -0.158,35.036c-0.919,4.426 -2.964,2.883 -34.966,3.885Z" style="fill:#a1e627;"/><path d="M702.231,207.749c0.006,-0.148 -1.358,-9.272 3.43,-10.364c3.186,-0.727 30.027,-0.043 32.637,0.023c6.244,0.159 6.574,1.601 6.622,7.854c0.239,31.744 0.258,33.472 -1.654,34.987c-2.307,1.828 -37.392,0.962 -37.815,0.835c-3.692,-1.11 -3.12,-2.965 -3.22,-33.335Z" style="fill:#25cad7;"/><path d="M793.359,251.774c2.124,-0.021 10.262,-0.699 11.636,1.597c0.649,1.085 0.676,8.699 0.678,9.458c0.104,29.677 1.263,30.014 -0.396,32.052c-1.219,1.497 -8.633,1.496 -9.394,1.496c-28.652,-0.004 -30.387,1.063 -31.803,-3.611c-0.133,-0.438 -0.019,-36.961 0.092,-37.296c1.527,-4.649 3.258,-3.453 29.187,-3.696Z" style="fill:#a0e434;"/><path d="M779.779,175.196c-0.031,-6.322 -0.025,-6.271 -0.037,-12.546c-0.037,-20.04 -2.29,-24.333 6.14,-24.401c3.992,-0.032 29.842,0.195 30.012,0.207c7.883,0.594 5.755,3.813 5.66,11.703c-0.352,29.272 0.931,31.121 -3.254,32.016c-1.066,0.228 -30.808,0.495 -32.43,0.479c-7.443,-0.071 -5.75,-3.991 -6.09,-7.458Z" style="fill:#9ae13f;"/><path d="M636.341,282.877c0.065,-31.288 -0.213,-31.607 1.217,-33.08c1.434,-1.477 7.419,-1.522 8.076,-1.527c2.202,-0.017 24.693,-0.188 27.523,-0.076c6.574,0.259 5.287,6.738 5.252,17.146c-0.077,23.058 0.413,23.62 -2.231,25.792c-1.29,1.06 -4.166,0.863 -5.531,0.883c-2.398,0.036 -26.099,0.389 -29.972,0.205c-4.141,-0.197 -4.324,-3.91 -4.348,-4.405c-0.081,-1.644 0.095,-3.293 0.014,-4.937Z" style="fill:#0ea8d1;"/><path d="M282.379,418.234c-13.361,-17.739 8.231,-31.789 19.625,-21.976c13.97,12.032 -2.55,35.881 -19.625,21.976Z" style="fill:#f1f1ef;"/></g></svg>